<svg width="19" height="20" id="Capa_1" data-name="Capa 1" xmlns="http://www.w3.org/2000/svg" viewBox="0 0 47.43 47.43"><rect width="47.43" height="47.43" rx="8.47" transform="translate(0 47.43) rotate(-90)" style="fill:#222221"/><rect x="18.43" y="29.56" width="15.85" height="4.91" style="fill:#fff"/><path d="M16.35,32a2.93,2.93,0,1,0-2.93,2.9A2.92,2.92,0,0,0,16.35,32Z" style="fill:#fff"/><path d="M26,21.71c-2.23,0-3.56-1-3.56-3,0-1.8,1.28-2.67,3.56-2.67h8.32V11.17h-10c-4.24,0-6.3,2.4-6.3,5.77a5.51,5.51,0,0,0,2.62,4.77H18.43v4.71H34.28V21.71Z" style="fill:#fff"/></svg>